# xmcd CD database file
#
# Track frame offsets:
#	150
#	20643
#	38983
#	59399
#	68591
#	81666
#	99377
#	113739
#	128981
#	152176
#	170991
#	188781
#	206218
#
# Disc length: 2908 seconds
#
# Revision: 0
# Processed by: cddbd v1.4PL0 Copyright (c) Steve Scherf et al.
# Submitted via: CDex 1.51
#
DISCID=bf0b5a0d
DTITLE=Michael Allen Harrison - Gershwin and Friends
DYEAR=1900
DGENRE=Jazz
TTITLE0=Our Love Is Here To Stay
TTITLE1=Someone to Watch Over Me
TTITLE2=God Bless the Child
TTITLE3=Laura
TTITLE4=Autumn Leaves
TTITLE5=Summertime
TTITLE6=You Do Something to Me
TTITLE7=I Will Be With You
TTITLE8=Bess, You Is My Woman
TTITLE9=Swanee
TTITLE10=He Loves She Loves
TTITLE11=Never Alone
TTITLE12=My Funny Valentine
EXTD=
EXTT0=
EXTT1=
EXTT2=
EXTT3=
EXTT4=
EXTT5=
EXTT6=
EXTT7=
EXTT8=
EXTT9=
EXTT10=
EXTT11=
EXTT12=
PLAYORDER=
